<?xml version="1.0" encoding="UTF-8"?>
<svg enable-background="new 0 0 485 485" version="1.1" viewBox="0 0 485 485" xml:space="preserve" xmlns="http://www.w3.org/2000/svg" xmlns:cc="http://creativecommons.org/ns#" xmlns:dc="http://purl.org/dc/elements/1.1/" xmlns:rdf="http://www.w3.org/1999/02/22-rdf-syntax-ns#"><metadata><rdf:RDF><cc:Work rdf:about=""><dc:format>image/svg+xml</dc:format><dc:type rdf:resource="http://purl.org/dc/dcmitype/StillImage"/><dc:title/></cc:Work></rdf:RDF></metadata>
<g fill="#4172c8">
	<path d="m355.66 0c-26.253 0-47.611 21.358-47.611 47.611v294.23h-226.31v15c0 70.667 57.491 128.16 128.16 128.16s128.16-57.49 128.16-128.16v-309.23c0-9.711 7.9-17.611 17.611-17.611s17.611 7.9 17.611 17.611v30h30v-30c1e-3 -26.253-21.358-47.611-47.611-47.611zm-145.77 455c-49.023 0-89.769-36.129-97.012-83.156h194.02c-7.243 47.027-47.988 83.156-97.011 83.156z" fill="#4172c8"/>
</g><g transform="rotate(180,355.62,79.093)" fill="#0078aa"><g transform="matrix(-.3807 .41248 -.4182 -.3755 422.2 -74.476)" fill="#0078aa"><path d="m10.859-42.521c61.574 0 111.67-50.093 111.67-111.67 0-61.573-50.093-111.67-111.67-111.67s-111.67 50.094-111.67 111.67c0 61.573 50.094 111.67 111.67 111.67zm0-208.33c53.303 0 96.667 43.364 96.667 96.667 0 53.302-43.364 96.666-96.667 96.666s-96.667-43.364-96.667-96.666c1e-3 -53.303 43.365-96.667 96.667-96.667z"/><path d="m10.859-84.187c4.142 0 7.5-3.357 7.5-7.5s-3.358-7.5-7.5-7.5c-30.327 0-55-24.673-55-55 0-4.143-3.358-7.5-7.5-7.5s-7.5 3.357-7.5 7.5c0 38.598 31.402 70 70 70z"/><path d="m-175.81 19.955c35.761 0 64.855-29.094 64.855-64.855s-29.094-64.854-64.855-64.854-64.855 29.094-64.855 64.854c0 35.761 29.093 64.855 64.855 64.855zm0-114.71c27.49 0 49.855 22.364 49.855 49.854s-22.365 49.855-49.855 49.855-49.855-22.365-49.855-49.855 22.364-49.854 49.855-49.854z"/><path d="m-179.49-68.135c14.84 0 26.913 12.073 26.913 26.913 0 4.143 3.358 7.5 7.5 7.5s7.5-3.357 7.5-7.5c0-23.111-18.802-41.913-41.913-41.913-4.142 0-7.5 3.357-7.5 7.5s3.358 7.5 7.5 7.5z"/></g></g></svg>
